<?xml version="1.0" encoding="UTF-8" standalone="no"?>
<svg
   width="64"
   height="64"
   viewBox="0 0 16.933333 16.933333"
   version="1.1"
   xmlns="http://www.w3.org/2000/svg">
  <path
      style="opacity: 1; fill: hsl(270, 100%, 70%);"
      d="M 8.1592326,5.4598666e-4 C 8.0224677,0.00771856 7.8709924,0.08622122 7.7320231,0.27055949 6.8715192,1.4119897 6.95612,3.3283749 6.4418398,4.4784927 5.9275595,4.8618652 4.09866,5.7296539 2.8888898,6.2734141 2.2686982,6.552174 1.9249359,7.3322409 1.8227375,8.0127287 1.7084372,8.7737969 1.000116,9.4433444 0.49512662,9.9017531 c -0.30033449,0.2726329 -0.16690175,0.8535149 0.056141,1.2153289 0.1352966,0.219474 0.3854682,0.827715 0.63092268,1.330819 0.064512,0.06187 0.2090673,0.151372 0.3951286,0.218685 0.2072068,0.07496 0.4674021,0.129255 0.7373241,0.131531 0.5398437,0.0046 1.1080956,-0.182238 1.4650237,-0.808437 0.02791,-0.113291 0.1377061,-0.03716 0.188208,-0.05079 0.064982,0.03772 0.087414,0.120764 0.05026,0.186069 -0.4086404,0.716926 -1.0968722,0.953161 -1.7056299,0.947988 -0.3043788,-0.0026 -0.5920438,-0.06213 -0.8282196,-0.147571 -0.020196,-0.0073 -0.039918,-0.01486 -0.059349,-0.02246 0.069446,0.114017 0.1343452,0.203468 0.1919502,0.252905 0.4842502,0.41558 1.4710912,0.603332 2.225339,0.504737 0.7675553,-0.100331 1.0569033,0.252375 1.2158628,0.654449 -0.5797342,0.224414 -0.6360221,1.303756 -0.4678452,1.982594 0.052723,0.212812 0.1777748,0.504828 0.1684243,0.635735 H 16.933333 v -2.99207 C 16.288146,13.436333 15.009659,12.047384 14.24015,10.668485 13.69149,9.6853311 13.571023,8.2640758 12.837684,7.0588593 12.525048,6.5450556 11.901519,5.8592075 11.475318,5.1906866 10.135638,3.7171989 9.6640758,1.6545641 8.4987544,0.15827665 8.4180379,0.05745469 8.2959973,-0.00662657 8.1592326,5.4598666e-4 Z M 3.4497693,8.1474681 C 3.9499951,8.1354343 4.1008502,8.574348 4.2659694,8.913912 4.299206,8.9822623 4.1947611,9.0989437 4.1246915,9.1283834 4.0560325,9.1572304 3.9099247,9.093681 3.8849378,9.0235249 3.7810849,8.7319347 3.7026394,8.4355747 3.4727606,8.4228285 3.185345,8.406892 3.1336405,8.6898644 2.9531736,8.9113368 2.9052613,8.9701357 2.8979241,9.0206164 2.7475112,9.0219483 2.5964468,9.0232861 2.5478853,8.9075082 2.5889066,8.8437104 2.8500087,8.4376355 3.169187,8.154218 3.4497693,8.1474681 Z"
      />
</svg>
