<?xml version="1.0" encoding="UTF-8" standalone="no"?>
<svg
   width="64"
   height="64"
   viewBox="0 0 16.933333 16.933334"
   version="1.1"
   xmlns="http://www.w3.org/2000/svg">
  <path
     style="opacity: 1; fill:hsl(345,100%,70%);"
     d="M 4.646242,4.14e-4 C 4.638042,-1.68e-4 4.629802,-8.9e-5 4.621682,5.46e-4 4.38977,0.018936 4.213298,0.520945 4.254177,0.746554 4.423324,1.706883 4.468691,2.761423 4.828861,3.787577 3.922645,4.518357 3.31734,5.255026 3.07614,6.080667 2.54462,7.900085 3.358821,9.982679 3.631612,12.19228 3.388776,13.5775 2.938557,15.272548 3.487973,16.933353 H 16.933716 C 16.801347,13.479184 15.089111,12.820587 14.867251,8.791154 14.770506,7.0340698 14.698387,5.106039 15.484381,3.452334 15.872323,2.639248 16.004989,1.352369 16.083026,0.435272 16.111056,0.015976 15.881301,-0.137177 15.31678,0.315551 13.844959,1.545176 12.803057,3.166634 10.575707,3.073271 8.883138,3.063771 7.059495,1.992736 5.786669,0.974866 5.452231,0.706724 5.046188,0.39008 4.825952,0.115513 4.764632,0.039063 4.703958,0.004427 4.646242,4.14e-4 Z m 0.7461389,6.962719 c 0.094382,0.2362607 0.059278,0.434211 0.059278,0.434211 C 5.4636344,7.4741 5.3698222,7.5460458 5.2930782,7.558098 5.2162622,7.570177 5.0284481,7.517681 5.016398,7.44086 c 0,0 -0.02812,-0.172479 -0.12032,-0.344957 C 4.803878,6.923428 4.669425,6.77146 4.430674,6.76113 3.922912,6.73916 3.7657858,7.221871 3.7657858,7.221871 3.7294096,7.290531 3.5450604,7.3167292 3.476375,7.280401 3.407677,7.244086 3.3436481,7.1597534 3.3784009,7.090252 3.3866691,7.0737165 3.74478,6.4121134 4.4268035,6.4215769 4.801689,6.4375814 5.299705,6.7311433 5.3923809,6.963133 Z M 9.8334512,7.307906 C 10.059557,7.55692 10.149152,7.6824916 10.221109,7.805188 10.260759,7.872797 9.9997061,7.9928218 9.890757,7.999402 9.812521,8.004132 9.5960468,8.01639 9.5563937,7.948782 c -10e-7,0 -0.1253582,-0.225728 -0.3290396,-0.450044 C 9.0236731,7.274423 8.88587,7.072428 8.656369,7.073256 8.415165,7.074129 8.2376676,7.247638 8.0406876,7.436482 7.8437076,7.625326 7.8574554,7.813743 7.8574554,7.813743 7.8140057,7.8790001 7.5017705,7.8966646 7.436528,7.853193 7.371297,7.8097452 7.2876825,7.7216453 7.3311254,7.656411 c 0,0 0.1492051,-0.212371 0.3708291,-0.424842 C 7.9235785,7.0191 8.2895571,6.7323179 8.655386,6.7309783 9.0329141,6.7295959 9.6073432,7.058892 9.8334512,7.307906 Z M 6.550946,11.548589 c 0.347934,0.07136 0.6435755,-0.05127 1.0528675,-0.392151 0.05974,-0.04974 0.2725503,-0.02297 0.3385525,0.0181 0.1032773,0.06427 0.1235183,0.148533 0.063751,0.19828 -0.4591847,0.38243 -1.057971,0.544578 -1.511609,0.451541 C 6.095158,11.742459 5.759996,11.453336 5.589115,10.991834 5.282193,11.225469 4.951189,11.375369 4.656424,11.349861 4.320701,11.320811 4.0527316,11.04621 3.9887576,10.67516 3.9755206,10.59852 4.00941,10.525666 4.086061,10.512481 c 0.076628,-0.01324 0.2079386,0.03817 0.2211452,0.114799 0.04556,0.264266 0.1397818,0.381027 0.3736498,0.401266 0.22388,0.01937 0.3815122,-0.08175 0.6653662,-0.321851 0,0 0.1706969,-1.3017985 0.1485709,-1.497192 C 5.4816751,9.0936566 5.7081704,9.0494603 5.836469,9.0586592 5.9577498,9.0673549 6.1815161,9.17438 6.1488728,9.244929 6.0760008,9.4024214 5.8841381,10.661516 5.8934158,10.701303 6.0152383,11.223735 6.203011,11.47723 6.550946,11.548589 Z"
     />
</svg>
