<?xml version="1.0" encoding="UTF-8" standalone="no"?>
<svg
   width="64"
   height="64"
   viewBox="0 0 16.933333 16.933333"
   version="1.1"
   xmlns="http://www.w3.org/2000/svg">
  <path
      style="opacity: 1; fill: hsl(210, 82%, 67%);"
      d="M 15.246591,2.3836559e-5 C 15.095103,-0.00189254 14.898654,0.11180341 14.686189,0.31962422 14.378246,0.62083274 13.156115,1.9623974 12.830853,2.1556733 12.432484,2.3923921 7.739646,2.8197599 7.3734012,2.3485356 7.0367551,1.9153941 6.5381777,1.1393729 5.9748741,0.58963141 5.4816337,0.10826644 4.7821962,-0.22053194 4.3945053,0.97535597 4.0616096,2.0022199 4.4950947,3.1996666 4.548244,4.174666 4.6109221,5.3244649 4.6142959,6.0488348 4.298074,6.7953892 4.084093,7.3005681 4.0666394,7.4125486 4.0666394,7.4125486 2.4914721,8.4188805 1.3878251,9.6834869 0,11.015767 v 5.917566 h 13.433135 c 0,0 1.001829,-1.663803 1.330199,-2.948589 0.159503,-0.624074 0.111001,-1.838404 -0.16972,-2.729828 0.274603,-0.712621 0.41864,-1.3714588 0.689896,-1.9925424 0.880351,-2.0156862 0.597638,-3.3339057 -0.55875,-4.3553818 0.07709,-1.0600224 0.634617,-2.4131999 0.809471,-4.08592563 0.05934,-0.5677181 -0.06623,-0.81824142 -0.28764,-0.821042333441 z M 9.5611285,7.0245236 C 9.5879215,7.1010546 9.4474995,7.192859 9.3389729,7.2239063 9.2138275,7.2682493 9.0683845,7.2160563 9.0411414,7.1386493 9.0050496,7.0504249 8.9626258,6.6252097 8.4325068,6.6100356 8.2568446,6.6050075 8.0225228,6.7065095 7.858832,6.8350305 7.6951409,6.9635507 7.6542428,7.1714656 7.6542428,7.1714656 7.6022808,7.2331166 7.3940872,7.229441 7.3318598,7.178166 7.2702088,7.126204 7.2017013,7.0062348 7.2529718,6.9440074 c 0,0 0.1746719,-0.3414699 0.3644165,-0.4904466 0.1838153,-0.1443166 0.4636891,-0.2559333 0.7616522,-0.2499834 0.869529,0.017363 1.182088,0.8209462 1.182088,0.8209462 z M 12.824872,6.2035774 c 0.684021,-0.010382 1.026773,0.5888344 1.091549,0.8058458 0.02239,0.075006 -0.210445,0.1542926 -0.285389,0.1768822 -0.07417,0.022356 -0.325046,-0.021885 -0.354157,-0.093675 -0.03222,-0.079451 0.04696,-0.5498494 -0.464131,-0.5691313 -0.1467,-0.00553 -0.321433,0.1563132 -0.442739,0.3000196 -0.126912,0.1503478 -0.07809,0.201563 -0.145696,0.2917036 -0.04636,0.061817 -0.274504,0.074976 -0.336756,0.029205 -0.06212,-0.045675 -0.175753,-0.1245306 -0.145885,-0.1956175 0.04389,-0.1044547 0.148416,-0.2608282 0.271498,-0.3811101 0.205511,-0.200837 0.515968,-0.3596339 0.811706,-0.3641223 z m -2.269794,2.8471432 c 0.361795,1.824e-4 0.319307,0.2937288 0.301611,0.3732727 l -0.0685,0.8478757 c 0.0145,0.0099 0.02702,0.02242 0.03692,0.03692 0.09882,0.147073 0.206054,0.447883 0.591863,0.468303 0.385809,0.02042 0.774929,-0.2353 1.061709,-0.453976 0.118208,-0.09014 0.235468,-0.141586 0.379723,-0.09482 0.15217,0.04933 0.06805,0.24296 -0.04574,0.321844 -0.35881,0.248741 -0.969511,0.531837 -1.410014,0.508527 -0.384786,-0.02036 -0.591099,-0.22595 -0.802934,-0.441288 -0.43614,0.327403 -0.808728,0.614881 -1.2395319,0.566483 C 8.9078168,11.133042 8.3924931,10.883928 8.1090566,10.564008 8.0576136,10.505948 7.8887068,10.411647 7.981739,10.26236 8.07446,10.113572 8.2797425,10.1652 8.3476992,10.20355 c 0.3780853,0.213341 0.5702137,0.623766 1.0433451,0.665861 0.284288,0.02529 0.4990301,-0.269881 0.8774567,-0.556768 l -0.05401,-0.8842435 c -0.05129,-0.1007048 -0.0027,-0.377852 0.340587,-0.3776789 z"
      />
</svg>
