<?xml version="1.0" encoding="UTF-8" standalone="no"?>
<svg
    version="1.1"
    viewBox="0 0 16.933334 16.933333"
    height="64"
    width="64"
    xmlns="http://www.w3.org/2000/svg">
  <path
      style="opacity: 1.0; fill: hsl(165, 56%, 60%);"
      d="M 2.3941744,0.38740414 C 2.163191,0.38383006 1.9823795,0.55674123 1.8776843,0.87804364 1.7133395,1.4240183 1.4332551,4.5693861 0.93152488,5.4050313 0.33535743,6.3979643 -0.22637797,10.828651 0.09245179,13.009023 c 0.16664563,1.139635 0.43960063,2.63644 0.63319103,3.92431 H 16.933387 v -4.328589 c -0.641433,0.02002 -1.311425,0.129177 -2.009998,0.337264 C 11.443378,13.675052 14.024159,6.0993423 13.761848,2.919247 13.646377,1.5508241 13.191355,1.4272288 12.050769,2.0204128 11.237848,2.4431884 10.406793,3.7209949 9.8757658,4.1350797 9.021921,4.8008916 5.8068496,3.8816031 5.4326623,3.5877881 4.1423807,2.5706218 4.0343559,1.7257751 2.7378293,0.50433544 2.6145182,0.42712554 2.4991667,0.38902883 2.3941744,0.38740414 Z M 4.2969715,6.6458509 c 0.042841,-2.56e-5 0.084832,0.00221 0.1256825,0.00679 0.6536073,0.073352 1.4481596,0.7401468 1.4218875,1.6530479 C 5.8418821,8.397985 5.693759,8.563905 5.4876447,8.563905 5.2886457,8.5581709 5.2160048,8.3882534 5.2187199,8.2959589 5.2407833,7.529307 4.8926734,7.2247875 4.3972642,7.169192 3.9018547,7.1135969 3.6287062,7.3026732 3.5187533,8.0344035 3.5050135,8.1255968 3.1639419,8.1884043 3.0727331,8.1747671 2.9813531,8.1611273 2.680126,8.0759048 2.6939009,7.984545 2.8180132,7.1585838 3.654357,6.6462347 4.2969715,6.6458509 Z m 5.2503388,0.5073358 c 0.031436,-9.53e-5 0.062538,0.00109 0.093269,0.00357 0.6555717,0.052974 1.4726147,0.7028455 1.4541857,1.5935711 -0.004,0.1926044 -0.30831,0.2456523 -0.400537,0.2416928 -0.09223,-0.00394 -0.274583,-0.077707 -0.270594,-0.2559715 C 10.44018,7.9962892 10.122508,7.6262898 9.62561,7.5861379 9.1287086,7.5459857 8.6848579,7.8361951 8.5994234,8.5983914 8.5843896,8.7325129 8.3587364,8.7511675 8.2676288,8.7361643 8.1249357,8.7126662 7.9847583,8.6351438 7.9997977,8.5440422 8.1415794,7.6851975 8.9081213,7.1551241 9.5473103,7.1531867 Z M 6.767902,10.263181 c 0.011706,-4.1e-5 0.023484,1.95e-4 0.035235,7.48e-4 0.1880095,0.0089 0.4609843,0.127047 0.417291,0.280266 l -0.2302354,0.80735 c -0.086505,0.303347 0.081456,0.773941 0.2192971,0.903152 0.1117476,0.104754 0.2791795,0.190878 0.4934599,0.175369 0.2071144,-0.01499 0.4804649,-0.08297 0.7654946,-0.310436 0.072067,-0.05751 0.2304205,0.0036 0.2746819,0.08446 0.044323,0.08099 -0.021509,0.284773 -0.1025372,0.329033 C 7.9497843,12.910445 7.3824699,12.918962 7.0098251,12.64136 6.8393655,12.514376 6.7192974,12.338115 6.643659,12.132009 6.5300583,12.319856 6.2102951,12.572052 6.018701,12.664102 5.5998561,12.865333 5.1948408,12.694442 4.5889258,12.192 c -0.071071,-0.05893 -0.062847,-0.212464 -0.00386,-0.283491 0.05891,-0.07093 0.2508185,-0.105034 0.301281,-0.02787 0.3145121,0.480964 0.6638809,0.539979 1.0957924,0.212272 0.2399636,-0.182068 0.3587703,-0.313114 0.3870077,-0.790423 l 0.047556,-0.803378 c 0.00987,-0.16682 0.1756012,-0.235317 0.3511991,-0.235929 z"
      />
</svg>
